<?xml version="1.0" encoding="UTF-8" standalone="no"?>
<!-- Created with Inkscape (http://www.inkscape.org/) -->

<svg
   xmlns:dc="http://purl.org/dc/elements/1.1/"
   xmlns:cc="http://creativecommons.org/ns#"
   xmlns:rdf="http://www.w3.org/1999/02/22-rdf-syntax-ns#"
   xmlns:svg="http://www.w3.org/2000/svg"
   xmlns="http://www.w3.org/2000/svg"
   xmlns:sodipodi="http://sodipodi.sourceforge.net/DTD/sodipodi-0.dtd"
   xmlns:inkscape="http://www.inkscape.org/namespaces/inkscape"
   width="1818"
   height="512"
   viewBox="0 0 481.01249 135.46667"
   version="1.1"
   id="svg845"
   sodipodi:docname="metron.svg"
   inkscape:version="0.92.4 (unknown)">
  <defs
     id="defs839" />
  <sodipodi:namedview
     id="base"
     pagecolor="#ffffff"
     bordercolor="#666666"
     borderopacity="1.0"
     inkscape:pageopacity="0.0"
     inkscape:pageshadow="2"
     inkscape:zoom="0.3825"
     inkscape:cx="992.61042"
     inkscape:cy="331.42857"
     inkscape:document-units="mm"
     inkscape:current-layer="g885"
     showgrid="true"
     units="px"
     inkscape:window-width="1920"
     inkscape:window-height="1016"
     inkscape:window-x="1440"
     inkscape:window-y="27"
     inkscape:window-maximized="1">
    <inkscape:grid
       type="xygrid"
       id="grid847" />
  </sodipodi:namedview>
  <metadata
     id="metadata842">
    <rdf:RDF>
      <cc:Work
         rdf:about="">
        <dc:format>image/svg+xml</dc:format>
        <dc:type
           rdf:resource="http://purl.org/dc/dcmitype/StillImage" />
        <dc:title></dc:title>
      </cc:Work>
    </rdf:RDF>
  </metadata>
  <g
     inkscape:label="Text"
     inkscape:groupmode="layer"
     id="layer1"
     transform="translate(0,-161.53332)">
    <g
       id="g885"
       transform="matrix(0.25190832,0,0,0.23901086,2.8368902,169.18097)">
      <path
         id="path881"
         data-old_color="#000000"
         class="active-path"
         data-original="#000000"
         d="m 93.77,214.773 a 651.207,651.207 0 0 0 54.908,49.772 645.745,645.745 0 0 0 -51.515,53.373 c -20.3,23.845 -45.014,57.633 -47.515,83.186 -0.89,9.1 1.1,16.532 5.92,22.084 6.146,7.082 15.778,9.88 27.166,9.88 20.157,0 45.813,-8.767 67.366,-18.074 a 522.8,522.8 0 0 0 48.536,-24.308 c 2.458,13.019 5.289,25.292 8.475,36.642 13.715,48.851 32.189,74.672 53.422,74.672 21.233,0 39.706,-25.821 53.422,-74.673 a 461.961,461.961 0 0 0 10.893,-50.453 c 16.506,7.815 32.383,14.478 47.292,19.8 20.4,7.286 44.241,13.892 63.594,13.892 13.549,0 24.9,-3.241 31.329,-11.755 4.393,-5.819 5.866,-13.31 4.377,-22.263 -4.207,-25.312 -31.257,-57.475 -53.21,-80 -12.591,-12.92 -26.79,-26.092 -42.3,-39.281 14.335,-13.971 27.394,-27.841 38.906,-41.367 20.3,-23.845 45.015,-57.633 47.515,-83.185 0.89,-9.1 -1.1,-16.532 -5.92,-22.085 -17.02,-19.613 -60.8,-6.37 -94.533,8.195 -11.749,5.073 -24.073,11.069 -36.794,17.867 a 464.993,464.993 0 0 0 -11.15,-52.02 C 300.239,35.821 281.767,10 260.533,10 239.299,10 220.826,35.821 207.111,84.672 a 469.105,469.105 0 0 0 -11.44,53.883 540.4,540.4 0 0 0 -55.811,-23.908 C 105.171,102.262 60.543,91.835 44.937,112.51 c -4.394,5.82 -5.866,13.31 -4.378,22.264 4.207,25.311 31.258,57.475 53.211,79.999 z M 429.438,112.659 c 8.422,0 14.54,1.929 17.931,5.838 2.574,2.966 3.6,7.357 3.04,13.05 -2.531,25.859 -35.07,70.484 -83.823,117.9 q -15.862,-13.059 -33.285,-26.013 c -0.975,-25.915 -3.111,-50.864 -6.316,-74.073 44.545,-24.176 80.992,-36.702 102.453,-36.702 z m -95.695,126.2 q 12.451,9.5 24.038,19.026 -11.581,10.915 -24.191,21.897 0.321,-11.784 0.323,-23.782 0,-8.622 -0.17,-17.146 z m -0.763,57.323 q 17.952,-15.187 34.161,-30.481 c 52.35,44.43 88.188,87.111 92.462,112.821 0.927,5.579 0.215,9.975 -2.118,13.066 -8.5,11.256 -38.9,8.936 -81.31,-6.209 a 516.331,516.331 0 0 1 -49.444,-20.892 c 3.028,-21.461 5.134,-44.438 6.249,-68.31 z m -132.5,7.417 q 6.417,4.491 12.983,8.934 c 14.329,9.693 28.714,18.87 42.977,27.447 -16.906,11.8 -33.293,22.368 -48.912,31.662 -3.318,-21.209 -5.694,-44.11 -7.048,-68.048 z M 302.4,424.084 C 290.813,465.358 275.162,490 260.533,490 c -14.629,0 -30.281,-24.642 -41.868,-65.916 -3.429,-12.213 -6.435,-25.538 -9,-39.738 18.918,-11.112 38.457,-23.772 58.106,-37.67 15.55,9.042 30.894,17.325 45.8,24.726 A 457.249,457.249 0 0 1 302.4,424.084 Z M 315.39,358.9 c -12.066,-6.076 -24.417,-12.735 -36.926,-19.906 q 12.009,-8.751 23.991,-18.063 9.141,-7.11 17.951,-14.306 c -1.095,18.138 -2.778,35.661 -5.016,52.275 z m 0.336,-203.274 c 2.43,18.614 4.173,38.332 5.176,58.754 q -10.947,-7.86 -22.365,-15.587 -12.8,-8.66 -25.626,-16.755 c 14.819,-9.816 29.151,-18.628 42.815,-26.41 z M 218.665,87.916 C 230.252,46.642 245.9,22 260.533,22 c 14.633,0 30.28,24.642 41.868,65.916 a 461.784,461.784 0 0 1 11.517,54.908 c -16.929,9.5 -34.454,20.33 -52.2,32.258 -18.554,-11.356 -36.945,-21.712 -54.785,-30.868 a 464.342,464.342 0 0 1 11.732,-56.298 z m -13.477,68.9 c 14.916,7.763 30.212,16.369 45.659,25.7 -13.745,9.54 -27.57,19.7 -41.3,30.376 q -4.878,3.793 -9.66,7.614 c 0.921,-22.175 2.713,-43.571 5.301,-63.694 z m -5.808,79.535 q 8.6,-7.038 17.532,-13.987 c 15.346,-11.935 30.439,-22.933 45.112,-32.984 q 14.87,9.273 29.789,19.358 15.264,10.326 29.695,20.955 0.4,13.014 0.405,26.311 c 0,11.6 -0.233,23.069 -0.687,34.344 q -12.687,10.643 -26.138,21.116 -14.141,11 -27.955,20.929 c -15.547,-9.226 -31.275,-19.2 -46.946,-29.8 q -10.4,-7.035 -20.422,-14.22 -0.6,-15.959 -0.612,-32.368 0,-9.905 0.227,-19.658 z m -2.96,141.762 c -49.716,28.334 -90.592,43.053 -113.858,43.052 -8.421,0 -14.539,-1.93 -17.93,-5.838 -2.575,-2.966 -3.6,-7.357 -3.041,-13.051 2.746,-28.062 40.832,-78.223 96.628,-130.075 q 14.345,11.329 29.8,22.526 a 715.782,715.782 0 0 0 8.401,83.382 z m -8.953,-98.71 q -10.379,-7.7 -20.223,-15.468 9.678,-8.728 19.965,-17.45 -0.051,4.746 -0.056,9.519 0,11.791 0.314,23.396 z M 54.514,119.74 c 8.5,-11.259 38.894,-8.937 81.311,6.208 a 536.975,536.975 0 0 1 58.026,25.093 762.687,762.687 0 0 0 -6.324,79.492 Q 172.016,243.34 157.69,256.28 C 98.424,208.11 57.011,160.565 52.4,132.806 c -0.931,-5.58 -0.219,-9.976 2.114,-13.066 z"
         inkscape:connector-curvature="0"
         style="fill:#ffffff" />
      <path
         id="path883"
         data-old_color="#000000"
         class="active-path"
         data-original="#000000"
         d="m 261.456,289.372 c 16.4,0 29.748,-12.776 29.748,-28.481 0,-15.705 -13.345,-28.48 -29.748,-28.48 -16.403,0 -29.748,12.776 -29.748,28.48 0,15.704 13.345,28.481 29.748,28.481 z m 0,-44.961 c 9.786,0 17.748,7.393 17.748,16.48 0,9.087 -7.962,16.481 -17.748,16.481 -9.786,0 -17.748,-7.393 -17.748,-16.481 0,-9.088 7.962,-16.48 17.748,-16.48 z"
         inkscape:connector-curvature="0"
         style="fill:#ffffff" />
    </g>
    <text
       xml:space="preserve"
       style="font-style:normal;font-variant:normal;font-weight:bold;font-stretch:normal;font-size:84.24040985px;line-height:1.25;font-family:sans-serif;-inkscape-font-specification:'sans-serif Bold';letter-spacing:0px;word-spacing:0px;fill:#ffffff;fill-opacity:1;stroke:none;stroke-width:1.75500822;"
       x="131.967"
       y="236.54047"
       id="text919"><tspan
         sodipodi:role="line"
         id="tspan917"
         x="131.967"
         y="236.54047"
         style="font-style:normal;font-variant:normal;font-weight:bold;font-stretch:normal;font-size:84.24040985px;font-family:sans-serif;-inkscape-font-specification:'sans-serif Bold';stroke-width:1.75500822;fill:#ffffff;">Metron</tspan></text>
    <text
       xml:space="preserve"
       style="font-style:normal;font-variant:normal;font-weight:bold;font-stretch:normal;font-size:27.16388889px;line-height:1.25;font-family:sans-serif;-inkscape-font-specification:'sans-serif Bold';letter-spacing:0px;word-spacing:0px;fill:#ffffff;fill-opacity:1;stroke:none;stroke-width:0.72032803;"
       x="139.71107"
       y="275.45251"
       id="text923"><tspan
         sodipodi:role="line"
         id="tspan921"
         x="139.71107"
         y="275.45251"
         style="font-style:normal;font-variant:normal;font-weight:bold;font-stretch:normal;font-size:27.16388889px;font-family:sans-serif;-inkscape-font-specification:'sans-serif Bold';stroke-width:0.72032803;fill:#ffffff;">Comic Book Database</tspan></text>
  </g>
</svg>
